<svg xmlns="http://www.w3.org/2000/svg" viewBox="0 0 603.8 899.87"><defs><style>.a{fill:#fff;}</style></defs><title>white</title><path class="a" d="M396.86,217.2l147.31,45.61L422.72,384.11Q410,301.7,396.86,217.2Z" transform="translate(-270.55 -157.29)"/><path class="a" d="M734.17,577.58,428,389.41l.33-1.75c6.62,0,13.24.2,19.85-.05,15.23-.57,30.45-1.36,45.67-2.08,14.72-.69,29.44-1.54,44.17-2a10.4,10.4,0,0,1,6.92,2.71q93.46,93.17,186.7,186.56c1.19,1.19,2.24,2.52,3.36,3.78Z" transform="translate(-270.55 -157.29)"/><path class="a" d="M640,523.37,554.86,579,424.46,392.1l.7-.84Z" transform="translate(-270.55 -157.29)"/><path class="a" d="M725.22,562.45q-15.81-15.94-31.65-31.89-73-73-146.09-145.89c-4.26-4.23-5-8.72-4.54-14,.58-6.72,1.56-13.41,1.95-20.14.84-14.37,1.31-28.75,2.13-43.12.69-12,1.67-23.93,3.46-36.4q88,145.32,176,290.65Z" transform="translate(-270.55 -157.29)"/><path class="a" d="M719.49,331.9l-95,55.3L550.37,264.59l.62-.85q14.37,5.6,28.75,11.18,37.56,14.52,75.15,29C674,311.32,693,318.63,712,326.2,714.49,327.18,716.42,329.5,719.49,331.9Z" transform="translate(-270.55 -157.29)"/><path class="a" d="M846.46,259.34,778.2,412c-2.91-3.84-5.25-6.71-7.35-9.74-15.18-22-30.25-44-45.54-65.88-2.48-3.55-1.93-5.38,1.62-7.46q24.14-14.12,48.13-28.51c19-11.34,37.94-22.76,57-34.09,4.49-2.68,9.12-5.12,13.69-7.67Z" transform="translate(-270.55 -157.29)"/><path class="a" d="M546.74,268.72c-.61,6.89-1.37,13.57-1.75,20.28-.51,8.92-.62,17.86-1.1,26.78q-1.42,26.22-3.1,52.41c-.23,3.76-.95,7.48-1.49,11.55a5.06,5.06,0,0,1-1.52.47c-11.43.4-22.88.56-34.3,1.17-16.17.86-32.32,2.05-48.49,3.05-2.48.15-5,.05-7.49.05H430.43Z" transform="translate(-270.55 -157.29)"/><path class="a" d="M418.41,389,542,566.25l-1,1c-3.64-3-7.42-5.94-10.91-9.14-13.69-12.55-27.27-25.21-40.94-37.78-11.58-10.64-23.25-21.2-34.87-31.8q-23.31-21.26-46.63-42.5c-8.69-7.88-17.48-15.68-26.28-23.44-2.05-1.8-2-2.84.25-4.57,10.79-8.15,21.43-16.48,32.1-24.79C415.13,392.16,416.39,390.86,418.41,389Z" transform="translate(-270.55 -157.29)"/><path class="a" d="M718.68,337.75Q699.9,407.92,681.13,478.1l-1.25.34-53.69-88.55,91.09-53Z" transform="translate(-270.55 -157.29)"/><path class="a" d="M685,475.82,721.65,339l1.46-.05c17.72,25.51,35.43,51,53.44,76.93l-90.36,60.74Z" transform="translate(-270.55 -157.29)"/><path class="a" d="M545.16,258.08,442.85,174l.36-.89c8.85,1.66,17.71,3.26,26.55,5q22.92,4.45,45.82,9c12.88,2.57,25.79,5,38.61,7.86,9.88,2.19,9.68,2.36,6.61,12.1C555.58,223.69,550.59,240.33,545.16,258.08Z" transform="translate(-270.55 -157.29)"/><path class="a" d="M538.07,257.78,399,214.59l39.83-39.7,99.74,81.92Z" transform="translate(-270.55 -157.29)"/><path class="a" d="M863.5,879.27V783.93c0-9.21.28-9.46,10.85-8.55-.71,40.64-1.43,81.37-2.15,121.8-9.6,4.13-12.27-3.64-15.9-9-12.94-19.09-25.63-38.33-38.37-57.55-7.4-11.17-14.69-22.42-22.08-33.6a62.9,62.9,0,0,0-4.13-4.84V897.68h-8.86V775.49c6.23-1.32,10.61-.48,14.32,5.61,9.69,15.92,20.19,31.35,30.5,46.89s21,31.27,31.45,46.9c1.06,1.58,2.1,3.19,3.15,4.79Z" transform="translate(-270.55 -157.29)"/><path class="a" d="M282,775c13.29,0,26.23-1.14,38.89.29,15.64,1.75,24.22,7.86,29.41,24.87,4.45,14.59-3.78,34.48-16.8,42.5-2.78,1.72-5.48,3.55-8.77,5.69,3.78,5.93,7.45,12.06,11.49,17.94,6,8.77,12.35,17.32,18.36,26.08.95,1.38.93,3.42,1.36,5.15-2.91.28-6.13,1.45-8.62.56-2.07-.74-3.44-3.79-4.85-6-8.38-13.09-16.65-26.25-25.07-39.3-.79-1.22-2.42-2.62-3.7-2.67-7-.26-13.93-.12-21.47-.12v47.55H282Zm10.5,8.26V841c8.11,0,15.78.33,23.41-.09s13.36-4.69,18.15-10.42c5.81-7,6.12-15.15,6.1-23.7,0-9.63-5.92-19.64-16.12-21.15S303.32,784,292.46,783.28Z" transform="translate(-270.55 -157.29)"/><path class="a" d="M712.48,532.33c-10.41-17.2-20-33.09-29.93-49.43l89.59-60.26,1.07.82Z" transform="translate(-270.55 -157.29)"/><path class="a" d="M363.85,942.24c3.55,3.2,3.62,6.78,1,11.13-7.72,13-17.58,24.29-28.6,34.56-13.47,12.55-28.85,22.23-45.5,30-3.26,1.51-6.7,2.67-9.85,4.37-1.1.59-2.43,2.51-2.22,3.52,2.64,12.53,14.16,21.76,26.83,24,10.65,1.85,20-.67,29.22-5,8.34-3.93,12.42-11.43,15.71-19.51.42-1,.75-2.12,1.13-3.18,2.71-7.66.13-11.21-7.68-11.6-7.58-.37-13.4,1.53-16.06,9.31-.18.52-.8.88-1.56,1.68l-2.87-4.68c3.48-6.11,7.19-12.12,14.8-12.65,5-.36,10.22.54,15.28,1.26,7.25,1,14.44,2.56,21.7,3.64,7.51,1.11,12-3.44,15.79-9,.34-.5.72-1,1.08-1.46h1.52c.16,1.88,1.08,4.15.36,5.6-3.3,6.54-7.67,11.79-16.19,10.93-5.84-.59-11.72-.79-17.85-1.17-1.32,5.26-2,10.82-4.1,15.83-5.86,14.25-16.6,22.63-31.8,26-10.86,2.41-21.44,2-31.37-2.27-10.58-4.49-17.41-12.81-20.3-24.41-2.07-8.29-2.12-16.47-1.38-24.81,1-11.19,11.2-25.39,21.88-27.65,7.48-1.59,16.17-2.82,21.89,5.09a19.05,19.05,0,0,1,2.66,6.49,28.08,28.08,0,0,1,.35,5.68l1.62.94c8.32-8.1,17.3-15.64,24.78-24.46C351.51,961.64,357.33,951.68,363.85,942.24Zm-85,74.11c6.91-3.19,13.77-5.85,20.1-9.43,4.52-2.57,9.27-5.14,11.46-10.75,2.37-6.09.44-12.44-5.76-13.8-5.69-1.25-11.34-.51-16.13,3.78C279.59,994.18,277.39,1004.28,278.86,1016.35Z" transform="translate(-270.55 -157.29)"/><path class="a" d="M537.7,775.29h65.6c1.41,6.8-.06,8.7-6.58,8.7H548.91v46.44h44.24v9H548.78v49.46h54.81v8.67h-65.8C541.48,856.91,538.88,816.42,537.7,775.29Z" transform="translate(-270.55 -157.29)"/><path class="a" d="M802.44,1055.17h-7.58V954.37c6.74-2.08,9.35-1.06,13,4.46q21.36,32.63,42.87,65.16,5.46,8.29,10.89,16.64l1.45-.32V953.88h7.77v100.66c-7.29,2.37-8.7,1.58-14.41-7q-22.21-33.52-44.56-67c-2.67-4-5.27-8.06-7.9-12.1l-1.49.34Z" transform="translate(-270.55 -157.29)"/><path class="a" d="M509.87,1054.75a12.4,12.4,0,0,0-2.44.77c-5.17,3.29-7.38-.25-9.79-4-7.34-11.41-14.83-22.72-22.26-34.08-.09-.13-.13-.31-.23-.44-1.89-2.67-18.41-3.07-20.33-.44a3.82,3.82,0,0,0-.78,2.26c.4,6.72,1,13.43,1.32,20.15.23,5.28.05,10.57.05,16.18h-8.53V953.8c1.42-.09,3-.28,4.57-.28,8.33,0,16.66.21,25-.07,14.65-.49,27.93,10.36,27.33,26.78-.41,11.14-3.2,20.37-11.81,27.49a65.56,65.56,0,0,1-7,4.44c-2.06,1.31-3,2.39-1.1,5.08C492.56,1029.44,501,1041.86,509.87,1054.75Zm-54.06-47.25c6.19,0,12,0,17.77,0,8.28,0,13.66-4.43,18.13-10.91,4.08-5.91,2.56-12.42,2.74-18.74.19-6.52-5-14.18-11.43-15.21-8.84-1.42-17.88-1.59-27.21-2.33Z" transform="translate(-270.55 -157.29)"/><path class="a" d="M419.7,384.68l-47.2-10.29,31.33-84.32,1.28.09C409.93,321.41,414.76,352.65,419.7,384.68Z" transform="translate(-270.55 -157.29)"/><path class="a" d="M645.94,1055c-7.54,1-7.38.75-9.05-5.12a217.86,217.86,0,0,0-7.42-21,6.13,6.13,0,0,0-4.25-3.23c-9.52-.78-19.08-1.38-28.63-1.55a60.23,60.23,0,0,0-13.12,1.62c-1.22.25-2.56,2-3.05,3.4-2.8,7.77-5,15.78-8.23,23.34-.86,2-4.72,2.72-7.21,4l-1.48-1.43c.56-2.53.8-5.19,1.74-7.58,5.68-14.48,11.7-28.84,17.27-43.37,5.89-15.4,11.39-31,17.07-46.43,1.14-3.08,3-4.38,6.64-4.33s5.6,1.12,6.69,4.31c7.59,22.31,15.1,44.64,22.8,66.92,3.16,9.14,6.73,18.15,10,27.25A12.24,12.24,0,0,1,645.94,1055Zm-21.15-38.89c-6.08-17.43-12-34.53-18-51.64l-1.16,0c-6.56,17-13.13,34-19.91,51.59Z" transform="translate(-270.55 -157.29)"/><path class="a" d="M641.51,526.13c-1.53,6.27-2.61,11.18-3.94,16C634,555.26,630,568.3,626.66,581.48c-.82,3.18-2.34,3.57-4.89,3.37-8.54-.67-17.08-1.31-25.61-2-11.75-.94-23.5-1.9-35.61-3.85Z" transform="translate(-270.55 -157.29)"/><path class="a" d="M566.68,201.86c13.22,26.41,26.29,52.54,40,79.94-7.22-2.74-13.44-5.06-19.63-7.45-11.2-4.34-22.38-8.73-33.59-13.06-.88-.34-2.1-.07-2.81-.58-1-.7-2.45-2.13-2.25-2.81,5.53-18.2,11.24-36.34,17-54.48C565.48,203,566,202.68,566.68,201.86Z" transform="translate(-270.55 -157.29)"/><path class="a" d="M694,556.63,629.36,584.3C634.67,564.63,639.7,546,645,526.49Z" transform="translate(-270.55 -157.29)"/><path class="a" d="M390.35,658.1c16.49-1.72,32.68-3.38,48.87-5.09,6.22-.65,12.42-1.39,18.63-2.07,7.46-.83,12.08-6.5,17.52-10.56,21.53-16.08,42.84-32.45,64.21-48.74a72.29,72.29,0,0,0,6.46-5.36c3.37-3.23,7.14-4.42,11.89-2.88l-90.74,69.36c5.58,2.61,10.61,5.08,15.73,7.36,13.73,6.11,27.52,12.06,41.18,18.3,1.31.6,1.9,2.78,2.82,4.23-1.75.05-3.75.68-5.19.05-19.51-8.58-38.93-17.36-58.43-26a11,11,0,0,0-5.21-.63c-18.21,1.66-36.41,3.42-54.62,5.17a76.12,76.12,0,0,0-9.81,1.14C389.92,663.27,389.72,661.54,390.35,658.1Z" transform="translate(-270.55 -157.29)"/><path class="a" d="M624.4,588.16h4.87a30.48,30.48,0,0,1,.38,3.4c0,25.8.13,51.6-.1,77.4,0,4.15,1.42,6.13,4.94,7.87,12.56,6.24,25,12.77,38,19.47l-2.62,4.25c-13.47-7-26.73-14-40.09-20.85a7.75,7.75,0,0,0-5.19-.29c-17.66,5.08-35.26,10.34-52.89,15.51-1.74.51-4.2,2-4.56-1.17-.12-1,2-3,3.43-3.47q24.72-7.44,49.58-14.43c3.62-1,4.34-2.94,4.33-6.37-.13-25.3-.07-50.6-.07-75.91Z" transform="translate(-270.55 -157.29)"/><path class="a" d="M710.84,953.78h7.91V1055h-7.91Z" transform="translate(-270.55 -157.29)"/><path class="a" d="M373.18,377.55l43,9.61-39,30.11C375.82,403.74,374.57,391.41,373.18,377.55Z" transform="translate(-270.55 -157.29)"/><path class="a" d="M405,203l-45-44.53.67-1.2,61.9,27.16Z" transform="translate(-270.55 -157.29)"/></svg>